<svg width="1709" height="1819" viewBox="0 0 1709 1819" fill="none" xmlns="http://www.w3.org/2000/svg">
<path d="M1459.92 1138.5C1509.58 1262.59 1448.48 1401.44 1323.44 1448.65L1061.5 1547.53C734.774 1670.88 364.718 1508.03 234.956 1183.8V1183.8C105.193 859.572 264.862 496.742 591.587 373.398L853.526 274.511C978.565 227.306 1120.19 289.629 1169.85 413.713L1459.92 1138.5Z" fill="#FCCF40"/>
<path d="M1440.98 1063.22C1484.69 1172.43 1430.91 1294.65 1320.85 1336.2L1065.31 1432.67C795.97 1534.35 490.912 1400.11 383.942 1132.83V1132.83C276.972 865.548 408.596 566.447 677.933 464.767L933.48 368.293C1043.54 326.745 1168.19 381.6 1211.9 490.814L1440.98 1063.22Z" fill="#38618C"/>
<line y1="-19.5" x2="1805.23" y2="-19.5" transform="matrix(-0.1248 0.992182 -0.993035 -0.117823 774.921 0)" stroke="#FCCF40" stroke-width="39"/>
<line y1="-20" x2="1805.23" y2="-20" transform="matrix(-0.1248 0.992182 -0.993035 -0.117823 887.292 23)" stroke="#FCCF40" stroke-width="40"/>
<path d="M1181.31 819.025L1181.65 819.883L1176.76 821.788L1176.42 820.93L1181.31 819.025ZM1180.4 816.673L1180.74 817.531L1175.84 819.436L1175.51 818.578L1180.4 816.673Z" fill="black"/>
<path d="M1708.89 1032.38L1201.47 1206.84C1148.72 1224.97 1091.31 1196.89 1073.24 1144.12L976.066 860.275C956.031 801.754 987.209 738.009 1045.7 717.898L1542.73 547.012L1708.89 1032.38Z" fill="#FCCF40"/>
<path d="M1609.42 741.818L1204.13 881.163C1151.38 899.299 1093.97 871.22 1075.9 818.447L997.946 590.732C977.911 532.21 1009.09 468.466 1067.58 448.354L1462.47 312.585L1609.42 741.818Z" fill="#FCCF40"/>
<path d="M1572 998.251L1308.39 1088.89C1255.64 1107.02 1198.23 1078.94 1180.16 1026.17L1176.03 1014.09C1150.81 940.419 1190.06 860.169 1263.7 834.85L1489.49 757.22L1572 998.251Z" fill="white"/>
<path d="M1449.92 641.657L1214.35 722.65C1167.95 738.604 1117.45 713.903 1101.55 667.479V667.479C1079.37 602.668 1113.89 532.073 1178.68 509.8L1380.97 440.248L1449.92 641.657Z" fill="white"/>
<line y1="-0.5" x2="763.018" y2="-0.5" transform="matrix(-0.33959 -0.940573 0.940109 -0.340875 1709 1032.34)" stroke="#FCCF40"/>
<line y1="-0.5" x2="317.048" y2="-0.5" transform="matrix(-0.945667 0.325136 -0.323897 -0.946092 1580.03 655.971)" stroke="#FCCF40"/>
</svg>
